<svg width="32" height="32" viewBox="0 0 32 32" fill="none" xmlns="http://www.w3.org/2000/svg">
  <defs>
    <radialGradient id="portalGradient" cx="16" cy="16" r="14" gradientUnits="userSpaceOnUse">
      <stop offset="0%" stop-color="#97ce4c" />
      <stop offset="50%" stop-color="#4ea12d" />
      <stop offset="100%" stop-color="#1b4d0e" />
    </radialGradient>
    <filter id="glow">
      <feGaussianBlur stdDeviation="1.5" result="blur" />
      <feComposite in="SourceGraphic" in2="blur" operator="over" />
    </filter>
  </defs>
  <circle cx="16" cy="16" r="14" fill="url(#portalGradient)" filter="url(#glow)" />
  <path d="M16 4C22.6274 4 28 9.37258 28 16C28 22.6274 22.6274 28 16 28C9.37258 28 4 22.6274 4 16C4 9.37258 9.37258 4 16 4Z" stroke="#2d6a1a" stroke-width="0.5" stroke-dasharray="2 2" opacity="0.5" />
  <path d="M16 8C20.4183 8 24 11.5817 24 16C24 20.4183 20.4183 24 16 24C11.5817 24 8 20.4183 8 16C8 11.5817 11.5817 8 16 8Z" stroke="#97ce4c" stroke-width="1" stroke-dasharray="4 2" opacity="0.8">
    <animateTransform attributeName="transform" type="rotate" from="0 16 16" to="360 16 16" dur="3s" repeatCount="indefinite" />
  </path>
  <circle cx="12" cy="12" r="1.5" fill="#ffffff" opacity="0.4" />
  <circle cx="20" cy="18" r="1" fill="#ffffff" opacity="0.3" />
</svg>
